<svg width="1920" height="860" viewBox="0 0 1920 860" fill="none" xmlns="http://www.w3.org/2000/svg">
  <rect width="1920" height="860" fill="#151515"/>
  <rect x="880" y="0" width="1040" height="860" fill="#262421"/>
  <path d="M0 0h1920v860H0z" fill="url(#roomGlow)"/>
  <rect x="1362" y="86" width="530" height="330" rx="10" fill="#071019" stroke="#4C5D68" stroke-width="4"/>
  <rect x="1382" y="108" width="490" height="282" fill="#091724"/>
  <g opacity=".92">
    <path d="M1418 142h118M1418 172h206M1418 202h164M1418 232h242M1418 262h190M1418 292h226M1418 322h150" stroke="#3EA3FF" stroke-width="7" stroke-linecap="round"/>
    <path d="M1560 142h248M1650 172h150M1608 202h220M1692 232h114M1634 262h194M1680 292h124M1602 322h226" stroke="#19D48F" stroke-width="7" stroke-linecap="round"/>
    <path d="M1492 158h52M1540 218h46M1510 280h64M1730 156h54M1760 278h42" stroke="#F57D31" stroke-width="5" stroke-linecap="round"/>
  </g>
  <rect x="1112" y="278" width="250" height="126" rx="8" fill="#1B1713"/>
  <rect x="1112" y="255" width="250" height="24" rx="5" fill="#5E4634"/>
  <rect x="1130" y="292" width="164" height="22" rx="4" fill="#E6B46C" fill-opacity=".42"/>
  <rect x="1026" y="452" width="212" height="76" rx="8" fill="#151515"/>
  <rect x="1252" y="476" width="96" height="110" rx="12" fill="#0D1115"/>
  <rect x="1330" y="520" width="270" height="34" rx="5" fill="#1A1B1D"/>
  <rect x="1016" y="592" width="776" height="92" rx="4" fill="#161514"/>
  <path d="M1036 676h790" stroke="#0D0D0D" stroke-width="10"/>
  <circle cx="1250" cy="545" r="40" fill="#355D34"/>
  <path d="M1250 495c14 24 26 48 8 88M1212 532c30 6 62 10 88-10M1222 508c30 28 62 42 100 48" stroke="#73B66B" stroke-width="8" stroke-linecap="round"/>
  <rect x="1280" y="544" width="70" height="68" rx="8" fill="#DED8CE"/>
  <rect x="1274" y="536" width="82" height="20" rx="10" fill="#F3EEE5"/>
  <rect x="1174" y="384" width="128" height="100" rx="4" fill="#0F0F10"/>
  <text x="1192" y="422" fill="#B8B2AA" font-family="Arial, Helvetica, sans-serif" font-size="31" font-weight="700">Design.</text>
  <text x="1192" y="457" fill="#B8B2AA" font-family="Arial, Helvetica, sans-serif" font-size="31" font-weight="700">Build.</text>
  <text x="1192" y="492" fill="#B8B2AA" font-family="Arial, Helvetica, sans-serif" font-size="31" font-weight="700">Launch.</text>
  <path d="M1188 662c-3-30 18-52 62-64 58-16 103 4 131 56l-193 8Z" fill="#0B0B0C"/>
  <path d="M1420 630c0-152 80-262 214-262 126 0 210 114 210 262v72h-424v-72Z" fill="#111111"/>
  <path d="M1434 610c6-132 78-222 198-222 116 0 186 94 198 222" stroke="#2A2A2A" stroke-width="6"/>
  <circle cx="1630" cy="282" r="132" fill="#D8AE8F"/>
  <path d="M1490 260c32-92 126-138 220-92 62 30 82 88 70 132-44-28-82-34-140-34-62 0-98-8-150-6Z" fill="#141414"/>
  <path d="M1508 264c30 38 52 54 118 52 74-2 120 10 154 42-20 56-72 94-150 94-84 0-148-52-166-126-5-20 10-46 44-62Z" fill="#E2B99B"/>
  <path d="M1550 324c26 16 50 24 78 24 32 0 58-8 88-26" stroke="#8B5A46" stroke-width="8" stroke-linecap="round" opacity=".28"/>
  <path d="M1578 384c28 20 70 20 100 0" stroke="#8B5A46" stroke-width="7" stroke-linecap="round" opacity=".42"/>
  <path d="M1462 702c42-128 126-196 224-196 104 0 180 68 220 196h-444Z" fill="#101010"/>
  <path d="M1554 524c58 52 106 54 158 0v178h-158V524Z" fill="#EFEAE2"/>
  <path d="M1554 524c52 42 106 42 158 0l-22 72h-112l-24-72Z" fill="#F7F3EE"/>
  <path d="M1786 628h120c28 0 52 22 56 50l12 78h-314l18-54c18-48 58-74 108-74Z" fill="#B7B9B8"/>
  <circle cx="1818" cy="698" r="34" fill="#222"/>
  <rect x="80" y="0" width="1030" height="860" fill="url(#leftFade)"/>
  <rect x="0" y="0" width="1920" height="860" fill="url(#bottomFade)"/>
  <defs>
    <linearGradient id="leftFade" x1="0" y1="430" x2="1110" y2="430" gradientUnits="userSpaceOnUse">
      <stop offset="0" stop-color="#050505"/>
      <stop offset=".52" stop-color="#050505" stop-opacity=".94"/>
      <stop offset="1" stop-color="#050505" stop-opacity="0"/>
    </linearGradient>
    <linearGradient id="bottomFade" x1="960" y1="520" x2="960" y2="860" gradientUnits="userSpaceOnUse">
      <stop stop-color="#050505" stop-opacity="0"/>
      <stop offset=".74" stop-color="#050505" stop-opacity=".82"/>
      <stop offset="1" stop-color="#050505"/>
    </linearGradient>
    <radialGradient id="roomGlow" cx="0" cy="0" r="1" gradientUnits="userSpaceOnUse" gradientTransform="translate(1350 374) rotate(55) scale(480 620)">
      <stop stop-color="#C18B5F" stop-opacity=".28"/>
      <stop offset="1" stop-color="#111111" stop-opacity="0"/>
    </radialGradient>
  </defs>
</svg>
